# xmcd CD database file
#
# Track frame offsets:
#	300
#	14165
#	27835
#	48629
#	66676
#	81697
#	102544
#	116358
#	137403
#	158543
#	177589
#	199294
#	221239
#	244612
#	275541
#	292717
#	311384
#
# Disc length: 4439 seconds
#
# Revision: 0
# Processed by: cddbd v1.5.1PL0 Copyright (c) Steve Scherf et al.
# Submitted via: CDex 1.51
#
DISCID=06115311
DTITLE=Fratta - Grandes Exitos [CD 1)
DYEAR=2004
DGENRE=Jazz
TTITLE0=Angelitos Negros (Ten Years After Mix)
TTITLE1=Ruta Animal
TTITLE2=Realidad
TTITLE3=Algo Que Es Mío
TTITLE4=Angelitos Negros
TTITLE5=Las Flores
TTITLE6=Dentro De Tu Cuerpo
TTITLE7=El Circo
TTITLE8=Llevando Arroz
TTITLE9=Ya No Hay Lágrimas
TTITLE10=Delirios
TTITLE11=Tengo Unos Monstruos
TTITLE12=Reina Mía
TTITLE13=No Será Mañana - Fuegos
TTITLE14=Música Del Azar
TTITLE15=Búscame Un Tiempo
TTITLE16=Flotes
EXTD=YEAR: 2004
EXTT0=
EXTT1=
EXTT2=
EXTT3=
EXTT4=
EXTT5=
EXTT6=
EXTT7=
EXTT8=
EXTT9=
EXTT10=
EXTT11=
EXTT12=
EXTT13=
EXTT14=
EXTT15=
EXTT16=
PLAYORDER=
